<svg xmlns="http://www.w3.org/2000/svg" viewBox="0 0 360 170" width="360" height="170" font-family='"Liberation Sans", Arial, Helvetica, FreeSans, sans-serif' role="img">
<title>The food level from 0 to 20: where the pack gives Saturation and Hunger, and the vanilla thresholds</title>
<defs><marker id="arrowamber" viewBox="0 0 10 10" refX="9" refY="5" markerWidth="7" markerHeight="7" orient="auto-start-reverse"><path d="M0 1 L9 5 L0 9 z" fill="#e6ad4f"/></marker></defs>
<rect x="15.5" y="56" width="14.6" height="22" fill="#314b28" stroke="#7fc45d" stroke-width="1" rx="2"/>
<rect x="31.1" y="56" width="14.6" height="22" fill="#314b28" stroke="#7fc45d" stroke-width="1" rx="2"/>
<rect x="48.7" y="56" width="14.6" height="22" fill="#314b28" stroke="#7fc45d" stroke-width="1" rx="2"/>
<rect x="64.3" y="56" width="14.6" height="22" fill="#314b28" stroke="#7fc45d" stroke-width="1" rx="2"/>
<rect x="81.9" y="56" width="14.6" height="22" fill="#314b28" stroke="#7fc45d" stroke-width="1" rx="2"/>
<rect x="97.5" y="56" width="14.6" height="22" fill="#314b28" stroke="#7fc45d" stroke-width="1" rx="2"/>
<rect x="115.1" y="56" width="14.6" height="22" fill="#58431f" stroke="#e6ad4f" stroke-width="1" rx="2"/>
<rect x="130.7" y="56" width="14.6" height="22" fill="#58431f" stroke="#e6ad4f" stroke-width="1" rx="2"/>
<rect x="148.3" y="56" width="14.6" height="22" fill="#353a46" stroke="#5b6270" stroke-width="1" rx="2"/>
<rect x="163.9" y="56" width="14.6" height="22" fill="#5a302b" stroke="#ef7e74" stroke-width="1" rx="2"/>
<rect x="181.5" y="56" width="14.6" height="22" fill="#5a302b" stroke="#ef7e74" stroke-width="1" rx="2"/>
<rect x="197.1" y="56" width="14.6" height="22" fill="#5a302b" stroke="#ef7e74" stroke-width="1" rx="2"/>
<rect x="214.7" y="56" width="14.6" height="22" fill="#5a302b" stroke="#ef7e74" stroke-width="1" rx="2"/>
<rect x="230.3" y="56" width="14.6" height="22" fill="#5a302b" stroke="#ef7e74" stroke-width="1" rx="2"/>
<rect x="247.9" y="56" width="14.6" height="22" fill="#5a302b" stroke="#ef7e74" stroke-width="1" rx="2"/>
<rect x="263.5" y="56" width="14.6" height="22" fill="#5a302b" stroke="#ef7e74" stroke-width="1" rx="2"/>
<rect x="281.1" y="56" width="14.6" height="22" fill="#5a302b" stroke="#ef7e74" stroke-width="1" rx="2"/>
<rect x="296.7" y="56" width="14.6" height="22" fill="#5a302b" stroke="#ef7e74" stroke-width="1" rx="2"/>
<rect x="314.3" y="56" width="14.6" height="22" fill="#5a302b" stroke="#ef7e74" stroke-width="1" rx="2"/>
<rect x="329.9" y="56" width="14.6" height="22" fill="#5a302b" stroke="#ef7e74" stroke-width="1" rx="2"/>
<text x="63.8" y="18" font-size="13" fill="#7fc45d" font-weight="bold" text-anchor="middle" dominant-baseline="middle">Saturation II</text>
<text x="63.8" y="35" font-size="11.5" fill="#7fc45d" text-anchor="middle" dominant-baseline="middle">+2 a tick</text>
<text x="254.7" y="18" font-size="13" fill="#ef7e74" font-weight="bold" text-anchor="middle" dominant-baseline="middle">Hunger CCLVI</text>
<text x="254.7" y="35" font-size="11.5" fill="#ef7e74" text-anchor="middle" dominant-baseline="middle">drains it</text>
<text x="130.2" y="18" font-size="13" fill="#e6ad4f" font-weight="bold" text-anchor="middle" dominant-baseline="middle">held</text>
<line x1="130.2" y1="28" x2="130.2" y2="51" stroke="#e6ad4f" stroke-width="1.5" marker-end="url(#arrowamber)"/>
<text x="22.3" y="92" font-size="11.5" fill="#aeb4bb" text-anchor="middle" dominant-baseline="middle">1</text>
<text x="105.3" y="92" font-size="11.5" fill="#aeb4bb" text-anchor="middle" dominant-baseline="middle">6</text>
<text x="171.7" y="92" font-size="11.5" fill="#aeb4bb" text-anchor="middle" dominant-baseline="middle">10</text>
<text x="304.5" y="92" font-size="11.5" fill="#aeb4bb" text-anchor="middle" dominant-baseline="middle">18</text>
<text x="337.7" y="92" font-size="11.5" fill="#aeb4bb" text-anchor="middle" dominant-baseline="middle">20</text>
<line x1="113.6" y1="52" x2="113.6" y2="82" stroke="#aeb4bb" stroke-width="1.5" stroke-dasharray="3 3"/>
<line x1="113.6" y1="102" x2="113.6" y2="118" stroke="#aeb4bb" stroke-width="1.5" stroke-dasharray="3 3"/>
<text x="118.6" y="112" font-size="11.5" fill="#aeb4bb" dominant-baseline="middle">Sprinting above 6</text>
<line x1="296.2" y1="52" x2="296.2" y2="82" stroke="#aeb4bb" stroke-width="1.5" stroke-dasharray="3 3"/>
<line x1="296.2" y1="102" x2="296.2" y2="135" stroke="#aeb4bb" stroke-width="1.5" stroke-dasharray="3 3"/>
<text x="291.2" y="129" font-size="11.5" fill="#aeb4bb" text-anchor="end" dominant-baseline="middle">Natural regeneration at 18+ (off)</text>
<text x="180" y="158" font-size="11.5" fill="#aeb4bb" text-anchor="middle" dominant-baseline="middle">Food level (vanilla thresholds dashed)</text>
</svg>
